<svg width="125" height="24" viewBox="0 0 125 24" fill="none" xmlns="http://www.w3.org/2000/svg">
<path fill-rule="evenodd" clip-rule="evenodd" d="M0 23.9998H23.9362V0H0V23.9998ZM25.266 23.9998H49.2021V0H25.266V23.9998ZM74.4681 23.9998H50.5319V0H74.4681V23.9998ZM75.7979 23.9998H99.734V0H75.7979V23.9998ZM125 23.9998H101.064V0H125V23.9998Z" fill="#FF690F"/>
<path fill-rule="evenodd" clip-rule="evenodd" d="M10.2868 11.5486V6H7.37988V18H10.2868V12.4516L13.3481 18.0001H16.5562L13.2265 12.0001L16.5562 6.00008H13.3481L10.2868 11.5486ZM35.072 16.2729L34.5515 18.0001H31.4475L35.3948 6.0001H39.0911L43.0206 18.0001H39.8268L39.3063 16.2729H35.072ZM37.1891 9.43643L35.7895 13.9161H38.5887L37.1891 9.43643ZM63.9803 18.0001H61.0736V12.7108L57.144 6.00008H60.6071L62.5448 9.68808L64.4469 6.00008H67.8558L63.9803 12.7108V18.0001ZM85.6039 16.2729L85.0834 18.0001H81.9794L85.9267 6.0001H89.623L93.5523 18.0001H90.3587L89.8382 16.2729H85.6039ZM87.7211 9.43643L86.3215 13.9161H89.1207L87.7211 9.43643ZM111.351 11.5486V6H108.444V18H111.351V12.4516L114.412 18.0001H117.62L114.29 12.0001L117.62 6.00008H114.412L111.351 11.5486Z" fill="#FAFAFC"/>
</svg>
