<svg width="135" height="139" viewBox="0 0 135 139" fill="none" xmlns="http://www.w3.org/2000/svg">
<path fill-rule="evenodd" clip-rule="evenodd" d="M93.2171 49.8055L123.705 65.2255C126.295 66.5275 127.933 69.2003 127.935 72.126V108.864C127.933 111.79 126.295 114.463 123.705 115.765L93.2171 131.185C91.0701 132.272 88.5424 132.272 86.3954 131.185L55.9077 115.765C53.32 114.446 51.6955 111.757 51.7156 108.826V72.126C51.7172 69.2003 53.3557 66.5275 55.9458 65.2255L86.4335 49.8055C88.5701 48.7315 91.0805 48.7315 93.2171 49.8055Z" stroke="#3182CE" stroke-width="12.6667" stroke-linecap="round" stroke-linejoin="round"/>
<path d="M19.1951 121V38" stroke="#2B6CB0" stroke-width="12.6667" stroke-linecap="round" stroke-linejoin="round"/>
<path d="M124.807 112.469L55.0844 68.3839" stroke="#3182CE" stroke-width="12.6667" stroke-linecap="round" stroke-linejoin="round"/>
<path d="M109.642 33L58.3211 7L6.99999 33" stroke="#2B6CB0" stroke-width="12.6667" stroke-linecap="round" stroke-linejoin="round"/>
</svg>
