<?xml version="1.0" encoding="utf-8"?>
<!-- Generator: Adobe Illustrator 23.0.2, SVG Export Plug-In . SVG Version: 6.00 Build 0)  -->
<svg version="1.1" id="Layer_1" xmlns="http://www.w3.org/2000/svg" xmlns:xlink="http://www.w3.org/1999/xlink" x="0px" y="0px"
	 viewBox="0 0 1200 1200" style="enable-background:new 0 0 1200 1200;" xml:space="preserve">
<style type="text/css">
	.st0{fill:#FFFFFF;}
	.st1{fill:url(#SVGID_1_);}
</style>
<title>HR_logo_sign</title>
<g>
	<rect x="376.8" y="323.9" class="st0" width="446.4" height="552.2"/>
	
		<linearGradient id="SVGID_1_" gradientUnits="userSpaceOnUse" x1="600.0003" y1="162.0723" x2="600.0003" y2="1033.76" gradientTransform="matrix(1 0 0 -1 0 1197.89)">
		<stop  offset="0" style="stop-color:#1BA94C"/>
		<stop  offset="1" style="stop-color:#32C766"/>
	</linearGradient>
	<path class="st1" d="M983.8,404.5c-0.2-1.8-0.3-3.6-0.6-5.5c-1.9-11.3-7.6-21.6-16.1-29.1c-0.1-0.2-0.2-0.3-0.3-0.3
		c-1.8-1.4-3.6-2.8-5.5-4c-52.7-39-107.5-74.9-164.3-107.7c-57.1-33-116.1-62.8-176.6-89.1c-1.2-0.6-2.5-1.1-3.8-1.6
		c-0.2-0.1-0.4-0.2-0.6-0.2c-5.1-1.9-10.5-2.8-15.9-2.8c-5.7,0-11.3,1-16.6,3c-0.8,0.3-1.6,0.6-2.3,1
		c-121,52.6-235.6,118.7-341.7,197c-2.2,1.5-4.3,3.1-6.5,4.8c-0.1,0-0.2,0.1-0.2,0.2c-8.4,7.6-14,17.8-15.9,29
		c-0.3,1.8-0.4,3.6-0.6,5.5c-14.9,131.1-14.8,263.5,0.2,394.5c1.6,13.3,8.4,25.5,19.1,33.7c0.9,0.7,1.8,1.3,2.7,1.9
		c52.5,38.9,107.2,74.7,163.8,107.2c57,32.9,115.8,62.6,176.1,88.9c0.1,0,0.1,0,0.2,0c1.1,0.6,2.3,1,3.5,1.5
		c11.9,4.7,25.2,4.7,37.1-0.1c0.3-0.2,0.7-0.3,1-0.4c0.8-0.4,1.8-0.8,2.6-1.2c60.2-26.3,119-55.9,175.9-88.8
		c56.5-32.6,111.2-68.4,163.6-107.2c0.9-0.6,1.8-1.3,2.7-1.9c10.6-8.2,17.5-20.3,19.1-33.6c7.6-65.7,11.3-131.8,11.3-198
		C994.9,535.3,991.2,469.7,983.8,404.5z M779.2,786.2l-60.7,56.5c-3.9,3.6-10,3.6-13.9,0l-60.7-56.5c-4.1-3.8-4.4-10.3-0.5-14.4
		c1.9-2.1,4.6-3.3,7.5-3.3h14.4V646.7H534.8v135.9c0,5.4-4.4,9.8-9.8,9.8c0,0,0,0,0,0h-73.1c-5.4,0-9.8-4.4-9.8-9.8V431.5h-14.4
		c-5.6,0-10.2-4.6-10.2-10.2c0-2.8,1.2-5.5,3.2-7.5l60.7-56.5c3.9-3.6,10-3.6,13.9,0l60.7,56.5c4.1,3.8,4.4,10.3,0.5,14.4
		c-1.9,2.1-4.6,3.3-7.5,3.2h-14.4v121.8h130.4V417.4c0-5.4,4.4-9.8,9.8-9.8h73.1c5.4,0,9.8,4.4,9.8,9.8v351.1h14.4
		c5.6,0,10.2,4.6,10.2,10.2C782.5,781.5,781.3,784.2,779.2,786.2z"/>
</g>
</svg>
