<?xml version="1.0" ?>
<svg viewBox="0 0 45 38.12" xmlns="http://www.w3.org/2000/svg">
  <defs>
    <style>.cls-1 {
      fill: #000000;
    }</style>
  </defs>
  <title/>
  <g data-name="Layer 2" id="Layer_2">
    <g data-name="Layer 1" id="Layer_1-2">
      <path class="cls-1"
            d="M12.46,38.12a3.33,3.33,0,1,1,3.33-3.33A3.33,3.33,0,0,1,12.46,38.12Zm0-4.66a1.33,1.33,0,1,0,1.33,1.33A1.33,1.33,0,0,0,12.46,33.46Z"/>
      <path class="cls-1"
            d="M33.52,38.12a3.33,3.33,0,1,1,3.33-3.33A3.33,3.33,0,0,1,33.52,38.12Zm0-4.66a1.33,1.33,0,1,0,1.33,1.33A1.33,1.33,0,0,0,33.52,33.46Z"/>
      <path class="cls-1"
            d="M44,0H37a1,1,0,0,0-1,1V5H1A1,1,0,0,0,0,6.2l3.83,19a1,1,0,0,0,1,.8H36v3H8a1,1,0,1,0,0,2H37a1,1,0,0,0,1-1V2h6a1,1,0,0,0,0-2ZM5.65,24,2.22,7H36V24Z"/>
    </g>
  </g>
</svg>
